# This file uses centimeters as units for non-parametric coordinates.

mtllib funny_normal.mtl
g default
v -0.500000 -0.450005 0.450005
v -0.450005 -0.500000 0.450005
v -0.450005 -0.450005 0.500000
v 0.450005 -0.500000 0.450005
v 0.500000 -0.450005 0.450005
v 0.450005 -0.450005 0.500000
v -0.450005 0.500000 0.450005
v -0.500000 0.450005 0.450005
v -0.450005 0.450005 0.500000
v 0.500000 0.450005 0.450005
v 0.450005 0.500000 0.450005
v 0.450005 0.450005 0.500000
v -0.450005 0.450005 -0.500000
v -0.500000 0.450005 -0.450005
v -0.450005 0.500000 -0.450005
v 0.500000 0.450005 -0.450005
v 0.450005 0.450005 -0.500000
v 0.450005 0.500000 -0.450005
v -0.450005 -0.500000 -0.450005
v -0.500000 -0.450005 -0.450005
v -0.450005 -0.450005 -0.500000
v 0.500000 -0.450005 -0.450005
v 0.450005 -0.500000 -0.450005
v 0.450005 -0.450005 -0.500000
vt 0.612501 0.987501
vt 0.362501 0.237501
vt 0.137499 0.237501
vt 0.137499 0.012499
vt 0.862501 0.012499
vt 0.862501 0.237501
vt 0.387499 0.987501
vt 0.375000 0.987501
vt 0.375000 0.762499
vt 0.362501 0.012499
vt 0.625000 0.987501
vt 0.625000 0.762499
vt 0.612501 0.012499
vt 0.375000 0.262499
vt 0.375000 0.487501
vt 0.387499 0.262499
vt 0.612501 0.237501
vt 0.612501 0.262499
vt 0.625000 0.262499
vt 0.375000 0.512499
vt 0.387499 0.512499
vt 0.612501 0.487501
vt 0.612501 0.512499
vt 0.625000 0.512499
vt 0.625000 0.737501
vt 0.387499 0.762499
vt 0.612501 0.737501
vt 0.387499 0.000000
vt 0.387499 0.012499
vt 0.612501 0.000000
vt 0.637499 0.012499
vt 0.387499 0.237501
vt 0.637499 0.237501
vt 0.387499 0.487501
vt 0.625000 0.487501
vt 0.375000 0.737501
vt 0.387499 0.737501
vt 0.612501 0.762499
vn 0.000000 -1.000000 0.000000
vn 0.000000 -1.000000 0.000000
vn 0.000000 -1.000000 0.000000
vn 0.000000 -1.000000 0.000000
vn 0.000000 0.000000 1.000000
vn 0.000000 0.000000 1.000000
vn 0.000000 0.000000 1.000000
vn 0.000000 0.000000 1.000000
vn -1.000000 0.000000 0.000000
vn -1.000000 0.000000 0.000000
vn -1.000000 0.000000 0.000000
vn -1.000000 0.000000 0.000000
vn 1.000000 0.000000 0.000000
vn 1.000000 0.000000 0.000000
vn 1.000000 0.000000 0.000000
vn 1.000000 0.000000 0.000000
vn 0.000000 1.000000 0.000000
vn 0.000000 1.000000 0.000000
vn 0.000000 1.000000 0.000000
vn 0.000000 1.000000 0.000000
vn 0.000000 0.000000 -1.000000
vn 0.000000 0.000000 -1.000000
vn 0.000000 0.000000 -1.000000
vn 0.000000 0.000000 -1.000000
vn -0.707107 -0.707106 0.000000
vn -0.707107 -0.707106 0.000000
vn -0.707107 -0.707107 0.000000
vn -0.707107 -0.707107 0.000000
vn 0.000000 -0.707107 0.707106
vn 0.000000 -0.707107 0.707106
vn 0.000000 -0.707107 0.707107
vn 0.000000 -0.707107 0.707107
vn -0.707106 0.000000 0.707107
vn -0.707106 0.000000 0.707107
vn -0.707107 0.000000 0.707107
vn -0.707107 0.000000 0.707107
vn 0.707107 -0.707107 0.000000
vn 0.707107 -0.707107 0.000000
vn 0.707107 -0.707106 0.000000
vn 0.707107 -0.707106 0.000000
vn 0.707107 0.000000 0.707107
vn 0.707107 0.000000 0.707107
vn 0.707106 0.000000 0.707107
vn 0.707106 0.000000 0.707107
vn -0.707107 0.707107 0.000000
vn -0.707107 0.707107 0.000000
vn -0.707107 0.707106 0.000000
vn -0.707107 0.707106 0.000000
vn 0.000000 0.707107 0.707107
vn 0.000000 0.707107 0.707107
vn 0.000000 0.707107 0.707106
vn 0.000000 0.707107 0.707106
vn 0.707107 0.707106 0.000000
vn 0.707107 0.707106 0.000000
vn 0.707107 0.707107 0.000000
vn 0.707107 0.707107 0.000000
vn -0.707106 0.000000 -0.707107
vn -0.707106 0.000000 -0.707107
vn -0.707107 0.000000 -0.707107
vn -0.707107 0.000000 -0.707107
vn 0.000000 0.707107 -0.707106
vn 0.000000 0.707107 -0.707106
vn 0.000000 0.707107 -0.707107
vn 0.000000 0.707107 -0.707107
vn 0.707107 0.000000 -0.707107
vn 0.707107 0.000000 -0.707107
vn 0.707106 0.000000 -0.707107
vn 0.707106 0.000000 -0.707107
vn 0.000000 -0.707107 -0.707107
vn 0.000000 -0.707107 -0.707107
vn 0.000000 -0.707107 -0.707106
vn 0.000000 -0.707107 -0.707106
vn -0.577350 -0.577350 0.577350
vn -0.577350 -0.577350 0.577350
vn -0.577350 -0.577350 0.577350
vn 0.577350 -0.577350 0.577350
vn 0.577350 -0.577350 0.577350
vn 0.577350 -0.577350 0.577350
vn -0.577350 0.577350 0.577350
vn -0.577350 0.577350 0.577350
vn -0.577350 0.577350 0.577350
vn 0.577350 0.577350 0.577350
vn 0.577350 0.577350 0.577350
vn 0.577350 0.577350 0.577350
vn -0.577350 0.577350 -0.577350
vn -0.577350 0.577350 -0.577350
vn -0.577350 0.577350 -0.577350
vn 0.577350 0.577350 -0.577350
vn 0.577350 0.577350 -0.577350
vn 0.577350 0.577350 -0.577350
vn -0.577350 -0.577350 -0.577350
vn -0.577350 -0.577350 -0.577350
vn -0.577350 -0.577350 -0.577350
vn 0.577350 -0.577350 -0.577350
vn 0.577350 -0.577350 -0.577350
vn 0.577350 -0.577350 -0.577350
s 1
g pCube1
usemtl initialShadingGroup
f 19/26/1 23/38/2 2/7/3
f 2/7/3 23/38/2 4/1/4
s 2
f 6/13/5 12/17/6 3/29/7
f 3/29/7 12/17/6 9/32/8
s 3
f 8/2/9 14/3/10 1/10/11
f 1/10/11 14/3/10 20/4/12
s 4
f 22/5/13 16/6/14 5/31/15
f 5/31/15 16/6/14 10/33/16
s 5
f 11/18/17 18/22/18 7/16/19
f 7/16/19 18/22/18 15/34/20
s 6
f 17/23/21 24/27/22 13/21/23
f 13/21/23 24/27/22 21/37/24
s 7
f 2/7/25 1/8/26 19/26/27
f 19/26/27 1/8/26 20/9/28
s 8
f 3/29/29 2/28/30 6/13/31
f 6/13/31 2/28/30 4/30/32
s 9
f 1/10/33 3/29/34 8/2/35
f 8/2/35 3/29/34 9/32/36
s 10
f 5/11/37 4/1/38 22/12/39
f 22/12/39 4/1/38 23/38/40
s 11
f 6/13/41 5/31/42 12/17/43
f 12/17/43 5/31/42 10/33/44
s 12
f 8/14/45 7/16/46 14/15/47
f 14/15/47 7/16/46 15/34/48
s 13
f 7/16/49 9/32/50 11/18/51
f 11/18/51 9/32/50 12/17/52
s 14
f 11/18/53 10/19/54 18/22/55
f 18/22/55 10/19/54 16/35/56
s 15
f 14/20/57 13/21/58 20/36/59
f 20/36/59 13/21/58 21/37/60
s 16
f 13/21/61 15/34/62 17/23/63
f 17/23/63 15/34/62 18/22/64
s 17
f 17/23/65 16/24/66 24/27/67
f 24/27/67 16/24/66 22/25/68
s 18
f 19/26/69 21/37/70 23/38/71
f 23/38/71 21/37/70 24/27/72
s off
f 1/10/73 2/28/74 3/29/75
f 4/30/76 5/31/77 6/13/78
f 7/16/79 8/2/80 9/32/81
f 10/33/82 11/18/83 12/17/84
f 13/21/85 14/15/86 15/34/87
f 16/35/88 17/23/89 18/22/90
f 19/26/91 20/36/92 21/37/93
f 22/25/94 23/38/95 24/27/96
