# This file uses centimeters as units for non-parametric coordinates.

mtllib funny_normal_smoothed.mtl
g default
v -0.500000 -0.450005 0.450005
v -0.450005 -0.500000 0.450005
v -0.450005 -0.450005 0.500000
v 0.450005 -0.500000 0.450005
v 0.500000 -0.450005 0.450005
v 0.450005 -0.450005 0.500000
v -0.450005 0.500000 0.450005
v -0.500000 0.450005 0.450005
v -0.450005 0.450005 0.500000
v 0.500000 0.450005 0.450005
v 0.450005 0.500000 0.450005
v 0.450005 0.450005 0.500000
v -0.450005 0.450005 -0.500000
v -0.500000 0.450005 -0.450005
v -0.450005 0.500000 -0.450005
v 0.500000 0.450005 -0.450005
v 0.450005 0.450005 -0.500000
v 0.450005 0.500000 -0.450005
v -0.450005 -0.500000 -0.450005
v -0.500000 -0.450005 -0.450005
v -0.450005 -0.450005 -0.500000
v 0.500000 -0.450005 -0.450005
v 0.450005 -0.500000 -0.450005
v 0.450005 -0.450005 -0.500000
vt 0.387499 0.762499
vt 0.612501 0.762499
vt 0.387499 0.987501
vt 0.612501 0.987501
vt 0.612501 0.012499
vt 0.612501 0.237501
vt 0.387499 0.012499
vt 0.387499 0.237501
vt 0.362501 0.237501
vt 0.137499 0.237501
vt 0.362501 0.012499
vt 0.137499 0.012499
vt 0.862501 0.012499
vt 0.862501 0.237501
vt 0.637499 0.012499
vt 0.637499 0.237501
vt 0.612501 0.262499
vt 0.612501 0.487501
vt 0.387499 0.262499
vt 0.387499 0.487501
vt 0.612501 0.512499
vt 0.612501 0.737501
vt 0.387499 0.512499
vt 0.387499 0.737501
vt 0.375000 0.987501
vt 0.375000 0.762499
vt 0.387499 0.000000
vt 0.612501 0.000000
vt 0.625000 0.987501
vt 0.625000 0.762499
vt 0.375000 0.262499
vt 0.375000 0.487501
vt 0.625000 0.262499
vt 0.625000 0.487501
vt 0.375000 0.512499
vt 0.375000 0.737501
vt 0.625000 0.512499
vt 0.625000 0.737501
vn 0.000000 -1.000000 0.000000
vn 0.000000 -1.000000 0.000000
vn 0.000000 -1.000000 0.000000
vn 0.000000 -1.000000 0.000000
vn 0.000000 0.000000 1.000000
vn 0.000000 0.000000 1.000000
vn 0.000000 0.000000 1.000000
vn 0.000000 0.000000 1.000000
vn -1.000000 0.000000 0.000000
vn -1.000000 0.000000 0.000000
vn -1.000000 0.000000 0.000000
vn -1.000000 0.000000 0.000000
vn 1.000000 0.000000 0.000000
vn 1.000000 0.000000 0.000000
vn 1.000000 0.000000 0.000000
vn 1.000000 0.000000 0.000000
vn 0.000000 1.000000 0.000000
vn 0.000000 1.000000 0.000000
vn 0.000000 1.000000 0.000000
vn 0.000000 1.000000 0.000000
vn 0.000000 0.000000 -1.000000
vn 0.000000 0.000000 -1.000000
vn 0.000000 0.000000 -1.000000
vn 0.000000 0.000000 -1.000000
s 1
g funny_normal:pCube1
usemtl initialShadingGroup
f 19/1/1 23/2/2 2/3/3
f 2/3/3 23/2/2 4/4/4
f 6/5/5 12/6/6 3/7/7
f 3/7/7 12/6/6 9/8/8
f 8/9/9 14/10/10 1/11/11
f 1/11/11 14/10/10 20/12/12
f 22/13/13 16/14/14 5/15/15
f 5/15/15 16/14/14 10/16/16
f 11/17/17 18/18/18 7/19/19
f 7/19/19 18/18/18 15/20/20
f 17/21/21 24/22/22 13/23/23
f 13/23/23 24/22/22 21/24/24
f 2/3/3 1/25/11 19/1/1
f 19/1/1 1/25/11 20/26/12
f 3/7/7 2/27/3 6/5/5
f 6/5/5 2/27/3 4/28/4
f 1/11/11 3/7/7 8/9/9
f 8/9/9 3/7/7 9/8/8
f 5/29/15 4/4/4 22/30/13
f 22/30/13 4/4/4 23/2/2
f 6/5/5 5/15/15 12/6/6
f 12/6/6 5/15/15 10/16/16
f 8/31/9 7/19/19 14/32/10
f 14/32/10 7/19/19 15/20/20
f 7/19/19 9/8/8 11/17/17
f 11/17/17 9/8/8 12/6/6
f 11/17/17 10/33/16 18/18/18
f 18/18/18 10/33/16 16/34/14
f 14/35/10 13/23/23 20/36/12
f 20/36/12 13/23/23 21/24/24
f 13/23/23 15/20/20 17/21/21
f 17/21/21 15/20/20 18/18/18
f 17/21/21 16/37/14 24/22/22
f 24/22/22 16/37/14 22/38/13
f 19/1/1 21/24/24 23/2/2
f 23/2/2 21/24/24 24/22/22
f 1/11/11 2/27/3 3/7/7
f 4/28/4 5/15/15 6/5/5
f 7/19/19 8/9/9 9/8/8
f 10/16/16 11/17/17 12/6/6
f 13/23/23 14/32/10 15/20/20
f 16/34/14 17/21/21 18/18/18
f 19/1/1 20/36/12 21/24/24
f 22/38/13 23/2/2 24/22/22
